PathFileType	4	(X/Y/Z)	C:/Users/opensim2020/Desktop/walking_exp_matlab/subject01_walking05_straight_03.trc	
DataRate	CameraRate	NumFrames	NumMarkers	Units	OrigDataRate	OrigDataStartFrame	OrigNumFrames	
100.00	100.00	8	43	mm	100.00	2106	223	
Frame#	Time	LFHD			RFHD			LBHD			RBHD			C7			T10			CLAV			STRN			RBAK			LSHO			LUPA			LELB			LFRM			LWRA			LWRB			LFIN			RSHO			RUPA			RELB			RFRM			RWRA			RWRB			RFIN			LASI			RASI			LPSI			RPSI			LTHI			LKNE			LTIB			LANK			LHEE			LTOE			RTHI			RKNE			RTIB			RANK			RHEE			RTOE			*39			*40			*41			*42			
		X1	Y1	Z1	X2	Y2	Z2	X3	Y3	Z3	X4	Y4	Z4	X5	Y5	Z5	X6	Y6	Z6	X7	Y7	Z7	X8	Y8	Z8	X9	Y9	Z9	X10	Y10	Z10	X11	Y11	Z11	X12	Y12	Z12	X13	Y13	Z13	X14	Y14	Z14	X15	Y15	Z15	X16	Y16	Z16	X17	Y17	Z17	X18	Y18	Z18	X19	Y19	Z19	X20	Y20	Z20	X21	Y21	Z21	X22	Y22	Z22	X23	Y23	Z23	X24	Y24	Z24	X25	Y25	Z25	X26	Y26	Z26	X27	Y27	Z27	X28	Y28	Z28	X29	Y29	Z29	X30	Y30	Z30	X31	Y31	Z31	X32	Y32	Z32	X33	Y33	Z33	X34	Y34	Z34	X35	Y35	Z35	X36	Y36	Z36	X37	Y37	Z37	X38	Y38	Z38	X39	Y39	Z39	X40	Y40	Z40	X41	Y41	Z41	X42	Y42	Z42	X43	Y43	Z43	

28	0.270	-1112.12122	-867.20367	1668.02563	-999.51617	-849.20032	1679.00244	-1097.38379	-973.50848	1602.25244	-977.86749	-957.45300	1611.57495	-1054.36707	-989.15619	1424.60217	-1043.80688	-1026.64636	1133.33240	-1056.34656	-844.33728	1359.20874	-1064.80017	-801.57892	1203.11755	-975.65033	-1041.39673	1230.37659	-1214.37634	-913.14148	1387.12476	-1307.08264	-938.89618	1210.58862	-1328.65051	-935.53156	1058.43823	-1369.36707	-851.18115	983.99103	-1377.13684	-721.49438	935.03986	-1390.34155	-766.95294	898.03589	-1418.94812	-692.85901	871.21765	-903.35413	-907.07941	1385.71082	-807.03876	-989.64856	1194.48279	-805.81763	-1005.96796	1071.83057	-769.04523	-1005.66846	953.77191	-774.21082	-947.89313	822.04968	-741.35022	-995.84509	834.50122	-740.32343	-978.72003	748.48193	-1157.03564	-866.32800	918.47687	-942.64221	-846.79047	931.31549	-1087.76184	-1046.58362	941.06946	-943.16998	-1032.27295	949.15997	-1230.06458	-932.32794	592.87073	-1233.52075	-964.73816	462.53110	-1238.82471	-1113.73303	345.89014	-1202.31824	-1257.58350	176.20921	-1139.21851	-1293.08899	178.49112	-1233.87390	-1197.28638	41.96930	-877.17828	-863.62903	602.87695	-906.73169	-828.96777	448.86493	-903.37091	-858.50574	274.05411	-957.18719	-852.41998	69.90627	-1011.28882	-895.25043	30.42780	-952.13629	-710.08844	34.56737	-1021.59766	-868.82684	1709.09753	-3101.82764	1973.20398	1023.35675	-3140.62573	2012.52820	1022.00452			 
29	0.280	-1109.60681	-860.04254	1669.01111	-996.97968	-842.11566	1680.07959	-1094.81519	-966.02954	1602.79834	-975.27966	-949.90076	1612.17578	-1051.84961	-981.01483	1425.57336	-1041.65186	-1018.48206	1134.22095	-1054.13892	-836.12579	1360.15564	-1062.42261	-793.37390	1203.97339	-972.79810	-1033.07092	1231.35156	-1211.96155	-904.99341	1387.89807	-1304.26379	-931.58765	1211.23950	-1324.84082	-928.95819	1058.86462	-1365.29626	-845.82764	982.75269	-1372.18860	-717.20020	931.10577	-1385.63367	-763.26233	894.97119	-1413.40833	-689.17090	866.69104	-900.88049	-899.00098	1386.60315	-804.27600	-980.02301	1194.91394	-803.23969	-995.83447	1071.84277	-766.73883	-993.52216	953.52954	-772.67426	-933.15479	822.91052	-739.47906	-980.88702	834.18475	-739.00513	-962.31152	748.67242	-1155.08679	-858.31036	919.28149	-940.69257	-839.42493	931.84521	-1086.39844	-1038.85413	941.56830	-941.75433	-1024.93384	950.28546	-1228.69922	-917.42908	592.67059	-1232.46155	-946.96552	462.02673	-1238.65808	-1096.91406	347.90247	-1200.94543	-1244.64636	183.30052	-1137.81665	-1280.81921	186.41727	-1233.63757	-1188.68945	46.84782	-875.83063	-859.66034	603.28662	-905.20392	-826.74896	448.49875	-902.54883	-857.47192	273.88293	-956.95264	-852.34747	69.75996	-1011.24677	-895.05682	30.11495	-951.81110	-710.06342	34.34919	-1019.10486	-861.66895	1710.11475	-3101.90820	1973.07056	1023.32538	-3140.45044	2012.60315	1022.19128			 
30	0.290	-1107.22815	-852.84015	1669.99243	-994.51215	-834.67969	1681.21851	-1092.31104	-958.54077	1603.33887	-972.76453	-942.34351	1612.77747	-1049.38843	-972.55963	1426.40820	-1039.54199	-1010.47321	1135.19641	-1051.96362	-827.87610	1360.97974	-1060.15735	-785.31262	1204.75842	-970.20380	-1024.84546	1232.32520	-1209.89368	-897.07257	1388.65356	-1301.36206	-924.52533	1211.80310	-1321.20166	-922.37994	1059.32495	-1360.87878	-840.70490	981.40332	-1367.27869	-713.19342	927.01666	-1380.90076	-759.85376	891.83167	-1407.75305	-686.27606	861.56915	-898.58832	-889.99023	1387.24524	-801.44244	-970.29993	1195.25024	-800.52057	-985.41724	1071.71631	-764.34760	-980.91632	953.27643	-771.14185	-918.22040	823.78540	-737.78290	-965.62109	834.00903	-737.61627	-946.05157	749.10767	-1153.37146	-850.35272	920.17529	-938.83514	-832.19055	932.35364	-1085.11743	-1031.30298	941.95569	-940.60608	-1017.76007	951.08600	-1227.20313	-902.77594	592.82458	-1231.02844	-929.17334	461.78317	-1238.20178	-1079.66248	349.59247	-1199.05847	-1231.08044	190.08830	-1136.11597	-1267.90869	193.78384	-1233.12341	-1178.72742	52.22212	-874.19250	-855.42371	603.57550	-903.74316	-824.71887	448.21332	-901.73944	-856.79041	273.78668	-956.76495	-852.73474	69.81403	-1010.89227	-895.11847	30.43072	-951.57556	-709.98773	34.14658	-1016.61169	-854.52155	1711.16418	-3101.81030	1973.20605	1023.43567	-3140.65698	2012.57751	1022.01343			 
31	0.300	-1104.86108	-845.60809	1670.89746	-992.32684	-827.53418	1682.16309	-1089.89893	-951.08746	1603.86304	-970.36316	-934.76483	1613.28516	-1047.05139	-964.29468	1427.30444	-1037.47449	-1002.65405	1136.19580	-1049.86194	-820.01953	1361.72437	-1058.07690	-777.31445	1205.40198	-967.76807	-1016.81720	1233.30298	-1207.77161	-888.93634	1389.47192	-1298.41162	-917.59351	1212.26208	-1317.74890	-915.92346	1059.78198	-1356.69189	-835.65405	980.10645	-1362.46558	-709.46558	922.69299	-1376.06738	-756.91803	888.57172	-1402.29675	-683.84491	856.44379	-896.38928	-881.92346	1387.99438	-798.59070	-960.29578	1195.47729	-797.58942	-974.89478	1071.65588	-761.84009	-968.21875	953.02600	-769.53400	-903.08325	824.74005	-735.78107	-950.23364	833.98645	-736.00562	-928.66962	749.35901	-1151.55908	-842.60217	920.95325	-936.86249	-825.20007	932.76288	-1083.98792	-1023.82471	942.19208	-939.45459	-1010.84570	951.72009	-1225.69324	-888.29889	593.25800	-1229.58276	-911.58282	461.82281	-1237.40991	-1062.11682	350.96701	-1197.12061	-1216.88293	196.02536	-1134.28394	-1254.39990	200.02266	-1231.59961	-1166.29138	57.48206	-873.09094	-851.72797	603.56354	-902.50421	-822.53345	447.95850	-900.95001	-856.03162	273.70200	-956.64819	-852.71735	69.71085	-1010.70660	-895.62439	30.84741	-951.35175	-709.93024	33.90760	-1014.29669	-847.42670	1712.10522	-3102.04028	1973.02966	1023.86469	-3140.57861	2012.53735	1022.06482			 
32	0.310	-1102.63794	-838.38287	1671.74744	-990.15649	-820.13770	1683.09143	-1087.56067	-943.59497	1604.34473	-968.00641	-927.13214	1613.84705	-1044.79346	-956.32056	1428.31592	-1035.52039	-994.89343	1137.11621	-1047.38379	-811.77820	1362.48132	-1056.07471	-769.43555	1205.97327	-965.47974	-1008.91974	1234.32483	-1205.63586	-880.96954	1390.33215	-1295.51013	-910.77484	1212.71448	-1314.35071	-909.48602	1060.32910	-1352.59229	-830.86279	978.94073	-1357.56201	-706.06940	918.49640	-1371.11780	-754.26855	885.12683	-1396.91150	-681.93359	851.32123	-894.37622	-872.94006	1388.51746	-795.75171	-950.11157	1195.62561	-794.62811	-964.06293	1071.50781	-759.32294	-955.21338	952.79089	-767.72839	-887.32672	825.78693	-733.57935	-935.31195	834.07813	-734.34796	-911.33929	749.96832	-1149.87512	-834.79565	921.84100	-934.94116	-818.33368	933.09338	-1082.90747	-1016.34601	942.41486	-938.42224	-1004.12921	952.16113	-1224.34656	-873.93365	594.04926	-1227.94348	-894.10730	462.23599	-1236.38330	-1044.48413	352.32895	-1195.07007	-1201.97290	200.95787	-1132.45410	-1240.48022	205.16705	-1229.59448	-1152.04590	62.51491	-872.58545	-848.02985	603.54480	-901.30469	-820.11530	447.77332	-900.32764	-854.92401	273.64081	-956.54254	-852.50024	69.59373	-1010.61755	-896.15076	31.22471	-951.25195	-709.86212	33.81671	-1012.08154	-840.22626	1712.90723	-3101.83325	1973.07922	1023.47083	-3140.65503	2012.48157	1021.99554			 
33	0.320	-1100.49902	-831.12463	1672.59216	-988.06891	-812.72998	1683.93164	-1085.31140	-936.10199	1604.82947	-965.76654	-919.54968	1614.33472	-1042.59900	-948.19293	1429.14941	-1033.54663	-987.37854	1138.15808	-1045.67712	-803.76672	1363.06372	-1054.24988	-761.65167	1206.47217	-963.29022	-1001.07550	1235.37231	-1203.80176	-873.13409	1391.26599	-1292.69702	-903.91315	1213.20288	-1310.99670	-903.17883	1060.87048	-1348.47766	-826.15442	977.49188	-1352.77563	-702.95923	914.20154	-1366.42847	-752.06256	881.93805	-1391.48071	-680.45599	846.12634	-892.41980	-864.95508	1389.15820	-792.97308	-939.65399	1195.75024	-791.58368	-953.10022	1071.42749	-756.72461	-941.87573	952.67096	-766.25739	-872.21375	826.90967	-731.56207	-919.58124	834.17114	-732.54419	-893.91241	750.81604	-1148.16321	-827.02429	922.76080	-932.89954	-811.49969	933.40210	-1081.94727	-1008.91290	942.68530	-937.49475	-997.50336	952.30444	-1222.96326	-859.65540	595.05402	-1226.12891	-876.66553	462.95450	-1234.85010	-1026.77576	353.61111	-1192.77759	-1186.33240	205.07062	-1130.53296	-1225.70740	209.52309	-1226.52124	-1135.83997	66.28065	-871.53778	-844.02582	603.62750	-900.58789	-818.16681	447.62070	-900.01453	-853.82916	273.68469	-956.56726	-852.48730	69.61451	-1010.74304	-895.54254	30.72643	-950.92310	-709.89398	33.92465	-1009.93365	-833.04370	1713.67090	-3102.03369	1973.08386	1023.33289	-3140.65918	2012.50684	1022.04187			 
34	0.330	-1098.44446	-823.84796	1673.34424	-986.03278	-805.45032	1684.66895	-1083.17529	-928.60956	1605.24890	-963.66486	-911.87903	1614.79712	-1040.54419	-940.19415	1429.93689	-1031.76477	-979.77753	1139.01489	-1043.59216	-795.88196	1363.58936	-1052.41821	-754.00647	1206.88672	-961.13446	-993.36047	1236.43469	-1201.97131	-865.12054	1392.20227	-1290.09583	-897.05084	1213.76819	-1307.67053	-897.07709	1061.39221	-1344.41907	-821.79419	976.20752	-1348.07275	-700.22382	909.93341	-1361.58325	-750.10333	878.72284	-1386.27698	-679.43750	841.36383	-890.57922	-856.13214	1389.56555	-790.33069	-929.13586	1195.89307	-788.57825	-941.97882	1071.37744	-754.15540	-928.37408	952.67590	-764.66693	-856.53070	828.23175	-729.53046	-903.00867	834.50464	-730.64209	-876.08417	751.86212	-1146.42944	-819.15881	923.73761	-930.84735	-804.84039	933.63812	-1081.08630	-1001.44360	942.99146	-936.69830	-991.00458	952.31982	-1221.68713	-845.54395	596.34601	-1224.27271	-859.22620	464.07300	-1232.99622	-1009.04810	355.04514	-1190.44189	-1169.79846	208.26851	-1128.46899	-1210.18042	212.67657	-1223.29626	-1118.83936	70.03538	-870.76630	-840.24023	603.38464	-899.92548	-815.36359	447.32825	-899.76379	-852.86804	273.72980	-956.65796	-852.57990	69.66138	-1010.83807	-895.52222	30.81749	-950.84155	-709.93298	33.82793	-1007.92358	-825.73450	1714.33240	-3101.85547	1973.17419	1023.24207	-3140.58936	2012.57190	1022.09601			 
35	0.340	-1096.49548	-816.50934	1674.02673	-984.01855	-797.92950	1685.49268	-1081.06274	-921.10419	1605.66736	-961.59686	-904.16980	1615.22241	-1038.47156	-932.14526	1430.60120	-1030.00000	-972.38293	1139.94543	-1042.47412	-787.85938	1364.14771	-1050.66980	-746.45001	1207.28296	-959.15906	-985.71057	1237.43152	-1199.85095	-857.34619	1393.00940	-1287.69507	-890.09875	1214.41687	-1304.24963	-891.07544	1061.94885	-1340.62659	-817.74353	975.14740	-1343.44666	-697.74817	905.65039	-1356.83972	-748.35895	875.60065	-1381.40186	-678.69739	836.08344	-888.90137	-848.25421	1390.16052	-787.71405	-918.50983	1196.10059	-785.61127	-930.81866	1071.40833	-751.66492	-915.02826	952.87860	-763.02698	-840.69489	829.73724	-727.37860	-887.77197	835.34076	-728.60071	-858.37769	753.27979	-1144.54822	-811.57861	924.61298	-928.64178	-798.26752	933.88110	-1080.51953	-993.95764	943.14923	-935.98669	-984.50757	952.39581	-1220.34692	-831.50659	597.82739	-1222.48962	-841.91357	465.46512	-1230.72485	-991.21838	356.52350	-1187.97864	-1152.64563	210.37460	-1126.33105	-1193.93140	214.84496	-1219.46667	-1100.35535	72.26454	-869.75171	-836.24811	603.46094	-899.25201	-812.23248	446.92291	-899.49573	-851.10254	273.60660	-956.64514	-852.51868	69.73618	-1010.95349	-895.24219	30.83515	-950.79523	-709.84064	33.68606	-1005.93365	-818.40839	1715.06018	-3101.94409	1973.11035	1023.30597	-3140.64160	2012.55981	1022.03760			 
